# xmcd
#
# Track frame offsets: 
#        150
#        17305
#        42410
#        64615
#        93770
#        110250
#        113855
#        133285
#        158810
#        192810
#        210425
#        233635
#        248427
#
# Disc length: 3545 seconds
#
# Revision: 0
# Processed by: cddbd v1.4PL0 Copyright (c) Steve Scherf et al.
# Submitted via: ExactAudioCopy v0.90b2
#
DISCID=9a0dd70d
DTITLE=Wayne Hancock - 2002-02-15 Free St. Tavernia Portland, ME
DYEAR=2002
DGENRE=Country
TTITLE0=route 66
TTITLE1=double a daddy
TTITLE2=honky tonk man
TTITLE3=california blues
TTITLE4=happy birthday juile #set2 start
TTITLE5=state college
TTITLE6=kansas city
TTITLE7=johnson  city
TTITLE8=morning noon and night
TTITLE9=thats what daddy wants
TTITLE10=when your birthday starts
TTITLE11=hoy-hoy-hoy
TTITLE12=filler: when i die gg allen acoustic
EXTD=
EXTT0=
EXTT1=
EXTT2=
EXTT3=
EXTT4=
EXTT5=
EXTT6=
EXTT7=
EXTT8=
EXTT9=
EXTT10=
EXTT11=
EXTT12=
PLAYORDER=
